<svg width="607" height="315" viewBox="0 0 607 315" fill="none" xmlns="http://www.w3.org/2000/svg">
<path d="M352.462 55.9837L352.625 55.5906L352.263 55.3663L265.51 1.62494L265.389 1.55H265.247H221.227H220.793L220.732 1.97884C217.957 21.2768 201.68 40.5437 176.931 40.5437C152.184 40.5437 135.905 21.1285 133.13 1.92849L133.068 1.49852L132.634 1.5L88.5678 1.64998L88.4265 1.65046L88.3063 1.72485L1.73682 55.3163L1.37405 55.5408L1.53876 55.9344L36.4147 139.271L36.6156 139.751L37.0872 139.531L75.5258 121.615L75.6631 314L75.6634 314.5H76.1631H278.434H278.934V314V121.817L317.05 139.631L317.523 139.852L317.723 139.37L352.462 55.9837Z" fill="white" stroke="black"/>
<path d="M312.8 213.512C306.528 213.512 301.152 213.171 296.672 212.488V204.872C301.92 205.384 306.4 205.64 310.112 205.64C312.288 205.64 313.973 205.555 315.168 205.384C316.405 205.171 317.323 204.829 317.92 204.36C318.475 203.933 318.816 203.421 318.944 202.824C319.115 202.227 319.2 201.373 319.2 200.264C319.2 199.027 319.115 198.131 318.944 197.576C318.773 196.979 318.432 196.552 317.92 196.296C317.408 195.997 316.555 195.784 315.36 195.656L305.952 194.568C303.136 194.184 300.96 193.459 299.424 192.392C297.888 191.283 296.821 189.875 296.224 188.168C295.669 186.419 295.392 184.264 295.392 181.704C295.392 177.949 296.075 175.112 297.44 173.192C298.805 171.229 300.64 169.949 302.944 169.352C305.248 168.755 308.213 168.456 311.84 168.456C317.429 168.456 322.208 168.883 326.176 169.736V177.16C322.037 176.605 317.877 176.328 313.696 176.328C309.856 176.328 307.317 176.648 306.08 177.288C305.397 177.629 304.971 178.077 304.8 178.632C304.629 179.187 304.544 180.019 304.544 181.128C304.544 182.408 304.629 183.325 304.8 183.88C304.971 184.435 305.333 184.84 305.888 185.096C306.485 185.309 307.467 185.501 308.832 185.672L318.944 186.888C320.907 187.101 322.528 187.507 323.808 188.104C325.088 188.659 326.091 189.597 326.816 190.92C327.84 192.755 328.352 195.592 328.352 199.432C328.352 203.485 327.712 206.536 326.432 208.584C325.152 210.632 323.424 211.976 321.248 212.616C319.115 213.213 316.299 213.512 312.8 213.512ZM363.557 213V194.952H346.149V213H337.061V168.968H346.149V186.76H363.557V168.968H372.709V213H363.557ZM383.123 213V168.968H392.211V213H383.123ZM428.222 213L421.758 197.064H411.838V213H402.75V168.968H423.486C427.283 168.968 430.163 169.544 432.126 170.696C434.131 171.805 435.454 173.363 436.094 175.368C436.776 177.331 437.118 179.869 437.118 182.984C437.118 189.939 435.027 194.227 430.846 195.848L437.886 213H428.222ZM419.838 189.192C422.312 189.192 424.104 189.021 425.214 188.68C426.366 188.339 427.091 187.763 427.39 186.952C427.731 186.099 427.902 184.776 427.902 182.984C427.902 181.149 427.731 179.827 427.39 179.016C427.091 178.205 426.387 177.651 425.278 177.352C424.211 177.011 422.419 176.84 419.902 176.84H411.838V189.192H419.838ZM454.955 213V177.224H442.155V168.968H476.843V177.224H464.043V213H454.955Z" fill="black"/>
<path d="M297.312 241.968H312.288C318.603 241.968 323.104 242.608 325.792 243.888C328.523 245.125 330.229 247.152 330.912 249.968C331.595 252.784 331.936 257.456 331.936 263.984C331.936 270.512 331.595 275.184 330.912 278C330.229 280.816 328.523 282.864 325.792 284.144C323.104 285.381 318.603 286 312.288 286H297.312V241.968ZM311.84 278.128C315.723 278.128 318.325 277.915 319.648 277.488C320.971 277.061 321.803 275.973 322.144 274.224C322.528 272.475 322.72 269.061 322.72 263.984C322.72 258.949 322.528 255.557 322.144 253.808C321.76 252.016 320.907 250.907 319.584 250.48C318.304 250.053 315.723 249.84 311.84 249.84H306.4V278.128H311.84ZM341.187 286V241.968H371.459V249.84H350.275V259.824H368.451V267.696H350.275V278.128H371.459V286H341.187ZM395.863 286.512C389.591 286.512 384.215 286.171 379.735 285.488V277.872C384.983 278.384 389.463 278.64 393.175 278.64C395.351 278.64 397.036 278.555 398.231 278.384C399.468 278.171 400.385 277.829 400.983 277.36C401.537 276.933 401.879 276.421 402.007 275.824C402.177 275.227 402.263 274.373 402.263 273.264C402.263 272.027 402.177 271.131 402.007 270.576C401.836 269.979 401.495 269.552 400.983 269.296C400.471 268.997 399.617 268.784 398.423 268.656L389.015 267.568C386.199 267.184 384.023 266.459 382.487 265.392C380.951 264.283 379.884 262.875 379.286 261.168C378.732 259.419 378.455 257.264 378.455 254.704C378.455 250.949 379.137 248.112 380.503 246.192C381.868 244.229 383.703 242.949 386.007 242.352C388.311 241.755 391.276 241.456 394.903 241.456C400.492 241.456 405.271 241.883 409.239 242.736V250.16C405.1 249.605 400.94 249.328 396.759 249.328C392.919 249.328 390.38 249.648 389.143 250.288C388.46 250.629 388.033 251.077 387.863 251.632C387.692 252.187 387.607 253.019 387.607 254.128C387.607 255.408 387.692 256.325 387.863 256.88C388.033 257.435 388.396 257.84 388.951 258.096C389.548 258.309 390.529 258.501 391.895 258.672L402.007 259.888C403.969 260.101 405.591 260.507 406.871 261.104C408.151 261.659 409.153 262.597 409.879 263.92C410.903 265.755 411.415 268.592 411.415 272.432C411.415 276.485 410.775 279.536 409.495 281.584C408.215 283.632 406.487 284.976 404.311 285.616C402.177 286.213 399.361 286.512 395.863 286.512ZM420.123 286V241.968H429.211V286H420.123ZM456.582 268.336V260.784H472.518V285.04C470.256 285.467 467.76 285.808 465.03 286.064C462.299 286.363 459.888 286.512 457.798 286.512C452.251 286.512 448.134 285.936 445.446 284.784C442.8 283.589 440.966 281.435 439.942 278.32C438.918 275.205 438.406 270.427 438.406 263.984C438.406 257.883 438.918 253.275 439.942 250.16C440.966 247.003 442.843 244.763 445.574 243.44C448.304 242.117 452.379 241.456 457.798 241.456C459.76 241.456 461.68 241.563 463.558 241.776C465.478 241.989 467.782 242.288 470.47 242.672L472.326 242.928V250.288L469.958 250.032C465.904 249.563 463.046 249.328 461.382 249.328C456.859 249.328 453.723 249.563 451.974 250.032C450.267 250.501 449.094 251.717 448.454 253.68C447.856 255.6 447.558 259.035 447.558 263.984C447.558 268.464 447.792 271.707 448.262 273.712C448.731 275.675 449.67 277.019 451.078 277.744C452.528 278.469 454.875 278.832 458.118 278.832C460.507 278.832 462.406 278.768 463.814 278.64V268.336H456.582ZM509.569 286L491.585 258.032H491.329V286H482.561V241.968H491.969L509.185 268.336H509.505V241.968H518.273V286H509.569ZM528.75 286V241.968H559.022V249.84H537.838V259.824H556.014V267.696H537.838V278.128H559.022V286H528.75ZM593.409 286L586.945 270.064H577.025V286H567.937V241.968H588.673C592.47 241.968 595.35 242.544 597.313 243.696C599.318 244.805 600.641 246.363 601.281 248.368C601.964 250.331 602.305 252.869 602.305 255.984C602.305 262.939 600.214 267.227 596.033 268.848L603.073 286H593.409ZM585.025 262.192C587.5 262.192 589.292 262.021 590.401 261.68C591.553 261.339 592.278 260.763 592.577 259.952C592.918 259.099 593.089 257.776 593.089 255.984C593.089 254.149 592.918 252.827 592.577 252.016C592.278 251.205 591.574 250.651 590.465 250.352C589.398 250.011 587.606 249.84 585.089 249.84H577.025V262.192H585.025Z" fill="black"/>
</svg>
